<svg width="109" height="112" viewBox="0 0 109 112" fill="none" xmlns="http://www.w3.org/2000/svg">
<g clip-path="url(#clip0_1_103)">
<path d="M107.5 101C107.5 106.799 102.799 111.5 97 111.5H85.5V100.5H96.5V87.5H107.5V101ZM99.5146 0.0126953C104.798 0.280544 109 4.64975 109 10V36L108.987 36.5146C108.728 41.6279 104.628 45.7281 99.5146 45.9873L99 46H73.9736C72.6823 61.0321 60.9143 73.0698 46 74.7871V100L45.9873 100.515C45.7281 105.628 41.6279 109.728 36.5146 109.987L36 110H10L9.48535 109.987C4.37212 109.728 0.271903 105.628 0.0126953 100.515L0 100V74C1.87243e-07 68.6498 4.20167 64.2805 9.48535 64.0127L10 64H42.3486C53.7671 63.9999 63 54.6603 63 43.248V10C63 4.64975 67.2017 0.280544 72.4854 0.0126953L73 0H99L99.5146 0.0126953ZM66.5 97C70.0899 97 73 99.9101 73 103.5C73 107.09 70.0899 110 66.5 110C62.9101 110 60 107.09 60 103.5C60 99.9101 62.9101 97 66.5 97ZM11 99H35V75H11V99ZM80.5 77C84.6421 77 88 80.3579 88 84.5C88 88.6421 84.6421 92 80.5 92C76.3579 92 73 88.6421 73 84.5C73 80.3579 76.3579 77 80.5 77ZM101.5 64C105.09 64 108 66.9101 108 70.5C108 74.0899 105.09 77 101.5 77C97.9101 77 95 74.0899 95 70.5C95 66.9101 97.9101 64 101.5 64ZM36.9912 0.0126953C42.2748 0.280666 46.4766 4.64984 46.4766 10V36L46.4639 36.5146C46.2047 41.6278 42.1043 45.728 36.9912 45.9873L36.4766 46H10.4766L9.96191 45.9873C4.84869 45.7281 0.748471 41.6279 0.489258 36.5146L0.476562 36V10C0.476563 4.64975 4.67823 0.280544 9.96191 0.0126953L10.4766 0H36.4766L36.9912 0.0126953ZM11.4766 35H35.4766V11H11.4766V35ZM74 12H74.0938V35H98V11H74V12Z" fill="#0C4B3A"/>
</g>
<defs>
<clipPath id="clip0_1_103">
<rect width="109" height="111.5" fill="white"/>
</clipPath>
</defs>
</svg>
