<svg width="173" height="176" viewBox="0 0 173 176" fill="none" xmlns="http://www.w3.org/2000/svg">
<rect width="173" height="175.5" rx="32" fill="#0C4B3A"/>
<path d="M139.5 133C139.5 138.799 134.799 143.5 129 143.5H117.5V132.5H128.5V119.5H139.5V133ZM131.515 32.0127C136.798 32.2805 141 36.6498 141 42V68L140.987 68.5146C140.728 73.6279 136.628 77.7281 131.515 77.9873L131 78H105.974C104.682 93.0321 92.9143 105.07 78 106.787V132L77.9873 132.515C77.7281 137.628 73.6279 141.728 68.5146 141.987L68 142H42L41.4854 141.987C36.3721 141.728 32.2719 137.628 32.0127 132.515L32 132V106C32 100.65 36.2017 96.2805 41.4854 96.0127L42 96H74.3486C85.7671 95.9999 95 86.6603 95 75.248V42C95 36.6498 99.2017 32.2805 104.485 32.0127L105 32H131L131.515 32.0127ZM98.5 129C102.09 129 105 131.91 105 135.5C105 139.09 102.09 142 98.5 142C94.9101 142 92 139.09 92 135.5C92 131.91 94.9101 129 98.5 129ZM43 131H67V107H43V131ZM112.5 109C116.642 109 120 112.358 120 116.5C120 120.642 116.642 124 112.5 124C108.358 124 105 120.642 105 116.5C105 112.358 108.358 109 112.5 109ZM133.5 96C137.09 96 140 98.9101 140 102.5C140 106.09 137.09 109 133.5 109C129.91 109 127 106.09 127 102.5C127 98.9101 129.91 96 133.5 96ZM68.9912 32.0127C74.2748 32.2807 78.4766 36.6498 78.4766 42V68L78.4639 68.5146C78.2047 73.6278 74.1043 77.728 68.9912 77.9873L68.4766 78H42.4766L41.9619 77.9873C36.8487 77.7281 32.7485 73.6279 32.4893 68.5146L32.4766 68V42C32.4766 36.6498 36.6782 32.2805 41.9619 32.0127L42.4766 32H68.4766L68.9912 32.0127ZM43.4766 67H67.4766V43H43.4766V67ZM106 44H106.094V67H130V43H106V44Z" fill="white"/>
</svg>
