<svg width="599" height="135" viewBox="0 0 599 135" fill="none" xmlns="http://www.w3.org/2000/svg">
<path d="M107.5 113C107.5 118.799 102.799 123.5 97 123.5H85.5V112.5H96.5V99.5H107.5V113ZM99.5146 12.0127C104.798 12.2805 109 16.6498 109 22V48L108.987 48.5146C108.728 53.6279 104.628 57.7281 99.5146 57.9873L99 58H73.9736C72.6823 73.0321 60.9143 85.0698 46 86.7871V112L45.9873 112.515C45.7281 117.628 41.6279 121.728 36.5146 121.987L36 122H10L9.48535 121.987C4.37212 121.728 0.271903 117.628 0.0126953 112.515L0 112V86C1.87243e-07 80.6498 4.20167 76.2805 9.48535 76.0127L10 76H42.3486C53.7671 75.9999 63 66.6603 63 55.248V22C63 16.6498 67.2017 12.2805 72.4854 12.0127L73 12H99L99.5146 12.0127ZM66.5 109C70.0899 109 73 111.91 73 115.5C73 119.09 70.0899 122 66.5 122C62.9101 122 60 119.09 60 115.5C60 111.91 62.9101 109 66.5 109ZM11 111H35V87H11V111ZM80.5 89C84.6421 89 88 92.3579 88 96.5C88 100.642 84.6421 104 80.5 104C76.3579 104 73 100.642 73 96.5C73 92.3579 76.3579 89 80.5 89ZM101.5 76C105.09 76 108 78.9101 108 82.5C108 86.0899 105.09 89 101.5 89C97.9101 89 95 86.0899 95 82.5C95 78.9101 97.9101 76 101.5 76ZM36.9912 12.0127C42.2748 12.2807 46.4766 16.6498 46.4766 22V48L46.4639 48.5146C46.2047 53.6278 42.1043 57.728 36.9912 57.9873L36.4766 58H10.4766L9.96191 57.9873C4.84869 57.7281 0.748471 53.6279 0.489258 48.5146L0.476562 48V22C0.476563 16.6498 4.67823 12.2805 9.96191 12.0127L10.4766 12H36.4766L36.9912 12.0127ZM11.4766 47H35.4766V23H11.4766V47ZM74 24H74.0938V47H98V23H74V24Z" fill="#0C4B3A"/>
<path d="M170.128 61.233H180.27L186.277 69.0206L190.563 74.0916L200.856 87.3125H189.99L182.987 78.4382L179.999 74.2124L170.128 61.233ZM202.335 51.0909C202.335 57.7517 201.088 63.4566 198.592 68.2056C196.117 72.9345 192.737 76.5567 188.45 79.0721C184.184 81.5875 179.345 82.8452 173.931 82.8452C168.518 82.8452 163.669 81.5875 159.382 79.0721C155.116 76.5366 151.736 72.9044 149.24 68.1754C146.765 63.4264 145.528 57.7315 145.528 51.0909C145.528 44.4302 146.765 38.7353 149.24 34.0064C151.736 29.2573 155.116 25.6251 159.382 23.1097C163.669 20.5943 168.518 19.3366 173.931 19.3366C179.345 19.3366 184.184 20.5943 188.45 23.1097C192.737 25.6251 196.117 29.2573 198.592 34.0064C201.088 38.7353 202.335 44.4302 202.335 51.0909ZM191.076 51.0909C191.076 46.4022 190.342 42.448 188.873 39.2283C187.424 35.9885 185.412 33.5436 182.836 31.8935C180.26 30.2232 177.292 29.3881 173.931 29.3881C170.571 29.3881 167.603 30.2232 165.027 31.8935C162.451 33.5436 160.429 35.9885 158.96 39.2283C157.511 42.448 156.787 46.4022 156.787 51.0909C156.787 55.7796 157.511 59.7438 158.96 62.9837C160.429 66.2034 162.451 68.6483 165.027 70.3185C167.603 71.9686 170.571 72.7937 173.931 72.7937C177.292 72.7937 180.26 71.9686 182.836 70.3185C185.412 68.6483 187.424 66.2034 188.873 62.9837C190.342 59.7438 191.076 55.7796 191.076 51.0909ZM213.373 82V35.6364H223.967V43.3636H224.45C225.295 40.6873 226.744 38.6246 228.797 37.1758C230.87 35.7068 233.234 34.9723 235.89 34.9723C236.494 34.9723 237.168 35.0025 237.913 35.0629C238.677 35.1031 239.311 35.1735 239.814 35.2741V45.3256C239.351 45.1647 238.617 45.0238 237.611 44.9031C236.625 44.7622 235.669 44.6918 234.743 44.6918C232.751 44.6918 230.96 45.1244 229.37 45.9897C227.801 46.8349 226.563 48.0121 225.658 49.5213C224.752 51.0305 224.299 52.7712 224.299 54.7433V82H213.373ZM301.32 41.0394H290.031C289.709 39.1881 289.116 37.5481 288.25 36.1193C287.385 34.6705 286.309 33.4429 285.021 32.4368C283.733 31.4306 282.264 30.676 280.614 30.1729C278.984 29.6497 277.223 29.3881 275.331 29.3881C271.971 29.3881 268.993 30.2333 266.397 31.9236C263.801 33.5939 261.768 36.0489 260.299 39.2887C258.83 42.5084 258.096 46.4425 258.096 51.0909C258.096 55.8198 258.83 59.8042 260.299 63.044C261.789 66.2637 263.821 68.6986 266.397 70.3487C268.993 71.9787 271.961 72.7937 275.301 72.7937C277.153 72.7937 278.883 72.5522 280.493 72.0692C282.123 71.5662 283.582 70.8317 284.87 69.8658C286.178 68.8999 287.274 67.7126 288.16 66.304C289.065 64.8954 289.689 63.2855 290.031 61.4744L301.32 61.5348C300.898 64.4728 299.982 67.2296 298.574 69.8054C297.185 72.3812 295.364 74.6551 293.11 76.6271C290.856 78.5791 288.22 80.1084 285.202 81.2152C282.183 82.3018 278.833 82.8452 275.15 82.8452C269.717 82.8452 264.867 81.5875 260.601 79.0721C256.335 76.5567 252.975 72.9245 250.52 68.1754C248.065 63.4264 246.837 57.7315 246.837 51.0909C246.837 44.4302 248.075 38.7353 250.55 34.0064C253.025 29.2573 256.396 25.6251 260.662 23.1097C264.928 20.5943 269.757 19.3366 275.15 19.3366C278.591 19.3366 281.791 19.8196 284.749 20.7855C287.707 21.7514 290.343 23.1701 292.657 25.0415C294.972 26.8929 296.873 29.1668 298.362 31.8633C299.872 34.5397 300.858 37.5984 301.32 41.0394ZM332.468 82.9055C327.82 82.9055 323.805 81.9396 320.425 80.0078C317.064 78.0559 314.478 75.299 312.667 71.7372C310.856 68.1553 309.95 63.9395 309.95 59.0898C309.95 54.3207 310.856 50.1351 312.667 46.533C314.498 42.9109 317.054 40.0936 320.334 38.0813C323.614 36.0489 327.468 35.0327 331.895 35.0327C334.752 35.0327 337.449 35.4955 339.984 36.4212C342.54 37.3267 344.794 38.7353 346.746 40.647C348.718 42.5587 350.267 44.9936 351.394 47.9517C352.521 50.8897 353.084 54.3911 353.084 58.456V61.8065H315.082V54.4414H342.61C342.59 52.3486 342.137 50.4872 341.252 48.8572C340.367 47.2071 339.129 45.9092 337.539 44.9634C335.97 44.0176 334.138 43.5447 332.046 43.5447C329.812 43.5447 327.85 44.0881 326.16 45.1747C324.469 46.2412 323.151 47.6499 322.205 49.4006C321.28 51.1312 320.807 53.0328 320.787 55.1055V61.5348C320.787 64.2313 321.28 66.5455 322.266 68.4773C323.252 70.389 324.63 71.858 326.401 72.8842C328.172 73.8904 330.245 74.3935 332.619 74.3935C334.209 74.3935 335.648 74.1721 336.936 73.7294C338.223 73.2666 339.34 72.5924 340.286 71.707C341.232 70.8216 341.946 69.7249 342.429 68.4169L352.632 69.5639C351.988 72.2604 350.76 74.6148 348.949 76.6271C347.158 78.6193 344.864 80.1688 342.067 81.2756C339.27 82.3622 336.07 82.9055 332.468 82.9055ZM374.105 54.8338V82H363.178V35.6364H373.622V43.5146H374.166C375.232 40.9187 376.933 38.8561 379.267 37.3267C381.621 35.7973 384.529 35.0327 387.99 35.0327C391.19 35.0327 393.977 35.7169 396.351 37.0852C398.746 38.4536 400.597 40.4357 401.905 43.0316C403.233 45.6275 403.887 48.7768 403.867 52.4794V82H392.94V54.1697C392.94 51.0708 392.136 48.646 390.526 46.8952C388.936 45.1445 386.732 44.2692 383.915 44.2692C382.004 44.2692 380.303 44.6918 378.814 45.5369C377.345 46.362 376.188 47.5593 375.343 49.1289C374.518 50.6985 374.105 52.6001 374.105 54.8338ZM438.977 35.6364V44.0881H412.324V35.6364H438.977ZM418.904 24.5284H429.831V68.0547C429.831 69.5237 430.052 70.6506 430.495 71.4354C430.958 72.2 431.562 72.7232 432.306 73.005C433.051 73.2867 433.876 73.4276 434.781 73.4276C435.465 73.4276 436.089 73.3772 436.653 73.2766C437.236 73.176 437.679 73.0855 437.981 73.005L439.822 81.5472C439.239 81.7485 438.403 81.9698 437.317 82.2113C436.25 82.4528 434.942 82.5936 433.393 82.6339C430.656 82.7144 428.191 82.3018 425.998 81.3963C423.804 80.4706 422.063 79.0419 420.776 77.1101C419.508 75.1783 418.884 72.7635 418.904 69.8658V24.5284ZM448.965 82V35.6364H459.56V43.3636H460.043C460.888 40.6873 462.337 38.6246 464.39 37.1758C466.462 35.7068 468.827 34.9723 471.483 34.9723C472.087 34.9723 472.761 35.0025 473.505 35.0629C474.27 35.1031 474.904 35.1735 475.407 35.2741V45.3256C474.944 45.1647 474.21 45.0238 473.204 44.9031C472.218 44.7622 471.262 44.6918 470.336 44.6918C468.344 44.6918 466.553 45.1244 464.963 45.9897C463.394 46.8349 462.156 48.0121 461.25 49.5213C460.345 51.0305 459.892 52.7712 459.892 54.7433V82H448.965ZM496.028 82.9357C493.09 82.9357 490.444 82.4125 488.089 81.3661C485.755 80.2996 483.904 78.73 482.536 76.6573C481.187 74.5846 480.513 72.029 480.513 68.9904C480.513 66.3744 480.996 64.2112 481.962 62.5007C482.928 60.7902 484.246 59.4219 485.916 58.3956C487.586 57.3693 489.468 56.5946 491.561 56.0714C493.674 55.5281 495.857 55.1357 498.111 54.8942C500.827 54.6125 503.031 54.3609 504.721 54.1396C506.412 53.8981 507.639 53.5359 508.404 53.0529C509.189 52.5498 509.581 51.7751 509.581 50.7287V50.5476C509.581 48.2737 508.907 46.5129 507.559 45.2653C506.21 44.0176 504.268 43.3938 501.733 43.3938C499.057 43.3938 496.934 43.9774 495.364 45.1445C493.815 46.3117 492.768 47.6901 492.225 49.2798L482.022 47.831C482.827 45.0137 484.155 42.6593 486.007 40.7678C487.858 38.8561 490.122 37.4273 492.798 36.4815C495.475 35.5156 498.433 35.0327 501.673 35.0327C503.906 35.0327 506.13 35.2943 508.343 35.8175C510.557 36.3407 512.579 37.206 514.411 38.4133C516.242 39.6006 517.711 41.2205 518.817 43.2731C519.944 45.3256 520.508 47.8913 520.508 50.9702V82H510.004V75.631H509.641C508.977 76.9189 508.042 78.1263 506.834 79.2532C505.647 80.36 504.148 81.2554 502.337 81.9396C500.546 82.6037 498.443 82.9357 496.028 82.9357ZM498.865 74.9066C501.059 74.9066 502.96 74.474 504.57 73.6087C506.18 72.7232 507.418 71.5561 508.283 70.1072C509.168 68.6584 509.611 67.0787 509.611 65.3683V59.9048C509.269 60.1866 508.685 60.4482 507.86 60.6896C507.056 60.9311 506.15 61.1424 505.144 61.3235C504.138 61.5046 503.142 61.6656 502.156 61.8065C501.17 61.9473 500.314 62.0681 499.59 62.1687C497.96 62.39 496.501 62.7522 495.213 63.2553C493.925 63.7584 492.909 64.4627 492.164 65.3683C491.42 66.2537 491.048 67.4007 491.048 68.8093C491.048 70.8216 491.782 72.3409 493.251 73.3672C494.72 74.3935 496.591 74.9066 498.865 74.9066ZM545.687 82.9357C542.749 82.9357 540.102 82.4125 537.748 81.3661C535.414 80.2996 533.562 78.73 532.194 76.6573C530.846 74.5846 530.172 72.029 530.172 68.9904C530.172 66.3744 530.655 64.2112 531.621 62.5007C532.586 60.7902 533.905 59.4219 535.575 58.3956C537.245 57.3693 539.126 56.5946 541.219 56.0714C543.332 55.5281 545.516 55.1357 547.769 54.8942C550.486 54.6125 552.689 54.3609 554.38 54.1396C556.07 53.8981 557.298 53.5359 558.062 53.0529C558.847 52.5498 559.24 51.7751 559.24 50.7287V50.5476C559.24 48.2737 558.565 46.5129 557.217 45.2653C555.869 44.0176 553.927 43.3938 551.392 43.3938C548.715 43.3938 546.592 43.9774 545.023 45.1445C543.473 46.3117 542.427 47.6901 541.883 49.2798L531.681 47.831C532.486 45.0137 533.814 42.6593 535.665 40.7678C537.517 38.8561 539.78 37.4273 542.457 36.4815C545.133 35.5156 548.091 35.0327 551.331 35.0327C553.565 35.0327 555.788 35.2943 558.002 35.8175C560.216 36.3407 562.238 37.206 564.069 38.4133C565.9 39.6006 567.369 41.2205 568.476 43.2731C569.603 45.3256 570.166 47.8913 570.166 50.9702V82H559.662V75.631H559.3C558.636 76.9189 557.7 78.1263 556.493 79.2532C555.305 80.36 553.806 81.2554 551.995 81.9396C550.204 82.6037 548.101 82.9357 545.687 82.9357ZM548.524 74.9066C550.717 74.9066 552.619 74.474 554.229 73.6087C555.839 72.7232 557.076 71.5561 557.942 70.1072C558.827 68.6584 559.27 67.0787 559.27 65.3683V59.9048C558.928 60.1866 558.344 60.4482 557.519 60.6896C556.714 60.9311 555.809 61.1424 554.802 61.3235C553.796 61.5046 552.8 61.6656 551.814 61.8065C550.828 61.9473 549.973 62.0681 549.248 62.1687C547.618 62.39 546.16 62.7522 544.872 63.2553C543.584 63.7584 542.568 64.4627 541.823 65.3683C541.078 66.2537 540.706 67.4007 540.706 68.8093C540.706 70.8216 541.441 72.3409 542.91 73.3672C544.379 74.3935 546.25 74.9066 548.524 74.9066ZM592.93 20.1818V82H582.004V20.1818H592.93Z" fill="#282A29"/>
<path d="M161.897 111.274C161.766 110.171 161.236 109.314 160.307 108.704C159.378 108.094 158.238 107.789 156.888 107.789C155.9 107.789 155.036 107.949 154.296 108.269C153.563 108.588 152.989 109.027 152.575 109.586C152.169 110.145 151.966 110.78 151.966 111.492C151.966 112.087 152.107 112.599 152.39 113.027C152.681 113.448 153.051 113.8 153.501 114.083C153.951 114.359 154.423 114.588 154.917 114.769C155.41 114.944 155.864 115.085 156.278 115.194L158.543 115.804C159.123 115.956 159.77 116.167 160.481 116.436C161.2 116.704 161.886 117.071 162.539 117.535C163.2 117.993 163.744 118.581 164.172 119.299C164.601 120.018 164.815 120.9 164.815 121.946C164.815 123.151 164.499 124.24 163.868 125.212C163.243 126.185 162.329 126.958 161.123 127.532C159.926 128.105 158.47 128.392 156.757 128.392C155.16 128.392 153.777 128.134 152.608 127.619C151.446 127.103 150.532 126.385 149.864 125.463C149.203 124.541 148.829 123.47 148.742 122.25H151.53C151.603 123.093 151.886 123.789 152.379 124.341C152.88 124.886 153.512 125.292 154.274 125.561C155.044 125.822 155.871 125.953 156.757 125.953C157.788 125.953 158.713 125.786 159.534 125.452C160.354 125.111 161.004 124.639 161.483 124.036C161.962 123.426 162.202 122.715 162.202 121.902C162.202 121.161 161.995 120.559 161.581 120.094C161.167 119.63 160.623 119.252 159.947 118.962C159.272 118.671 158.543 118.417 157.759 118.2L155.015 117.416C153.272 116.915 151.893 116.2 150.877 115.27C149.86 114.341 149.352 113.125 149.352 111.622C149.352 110.374 149.69 109.285 150.365 108.356C151.047 107.419 151.962 106.693 153.109 106.178C154.263 105.655 155.552 105.394 156.975 105.394C158.412 105.394 159.69 105.651 160.808 106.167C161.926 106.675 162.811 107.372 163.465 108.258C164.125 109.143 164.474 110.149 164.51 111.274H161.897ZM175.702 128.348C174.133 128.348 172.783 127.978 171.651 127.238C170.518 126.497 169.647 125.477 169.037 124.178C168.427 122.878 168.123 121.394 168.123 119.724C168.123 118.025 168.435 116.526 169.059 115.227C169.691 113.92 170.569 112.9 171.694 112.167C172.827 111.426 174.148 111.056 175.658 111.056C176.834 111.056 177.894 111.274 178.838 111.71C179.781 112.145 180.555 112.755 181.157 113.539C181.76 114.323 182.134 115.238 182.279 116.283H179.709C179.513 115.521 179.077 114.846 178.402 114.258C177.734 113.662 176.834 113.365 175.702 113.365C174.7 113.365 173.821 113.626 173.066 114.149C172.319 114.664 171.734 115.394 171.313 116.338C170.899 117.274 170.692 118.374 170.692 119.637C170.692 120.929 170.896 122.054 171.302 123.013C171.716 123.971 172.297 124.715 173.045 125.245C173.8 125.775 174.685 126.04 175.702 126.04C176.369 126.04 176.976 125.924 177.52 125.691C178.065 125.459 178.526 125.125 178.903 124.69C179.281 124.254 179.549 123.731 179.709 123.122H182.279C182.134 124.109 181.774 124.998 181.201 125.789C180.634 126.573 179.883 127.198 178.947 127.662C178.017 128.12 176.936 128.348 175.702 128.348ZM190.958 128.392C189.898 128.392 188.936 128.192 188.072 127.793C187.208 127.387 186.522 126.802 186.014 126.04C185.506 125.27 185.252 124.341 185.252 123.252C185.252 122.294 185.44 121.517 185.818 120.922C186.195 120.319 186.7 119.848 187.331 119.506C187.963 119.165 188.66 118.911 189.422 118.744C190.192 118.57 190.965 118.432 191.742 118.33C192.758 118.2 193.582 118.102 194.213 118.036C194.852 117.964 195.317 117.844 195.607 117.677C195.905 117.51 196.054 117.22 196.054 116.806V116.719C196.054 115.644 195.76 114.809 195.172 114.214C194.591 113.619 193.709 113.321 192.526 113.321C191.299 113.321 190.337 113.59 189.64 114.127C188.943 114.664 188.453 115.238 188.17 115.848L185.731 114.976C186.166 113.96 186.747 113.169 187.473 112.602C188.206 112.029 189.005 111.63 189.869 111.405C190.74 111.172 191.596 111.056 192.438 111.056C192.976 111.056 193.593 111.122 194.29 111.252C194.994 111.376 195.673 111.633 196.326 112.025C196.987 112.417 197.535 113.009 197.97 113.8C198.406 114.592 198.624 115.651 198.624 116.98V128H196.054V125.735H195.923C195.749 126.098 195.458 126.486 195.052 126.9C194.645 127.314 194.105 127.666 193.429 127.956C192.754 128.247 191.93 128.392 190.958 128.392ZM191.35 126.083C192.366 126.083 193.222 125.884 193.919 125.485C194.624 125.085 195.154 124.57 195.509 123.938C195.872 123.307 196.054 122.642 196.054 121.946V119.593C195.945 119.724 195.705 119.844 195.335 119.953C194.972 120.054 194.551 120.145 194.072 120.225C193.6 120.298 193.139 120.363 192.689 120.421C192.246 120.472 191.887 120.515 191.611 120.552C190.943 120.639 190.319 120.78 189.738 120.976C189.164 121.165 188.7 121.452 188.344 121.837C187.996 122.214 187.821 122.73 187.821 123.383C187.821 124.276 188.152 124.951 188.812 125.408C189.48 125.858 190.326 126.083 191.35 126.083ZM205.884 117.938V128H203.314V111.274H205.797V113.887H206.015C206.407 113.038 207.002 112.356 207.801 111.84C208.599 111.318 209.63 111.056 210.893 111.056C212.026 111.056 213.017 111.289 213.866 111.753C214.715 112.21 215.376 112.907 215.848 113.844C216.32 114.773 216.556 115.949 216.556 117.372V128H213.986V117.546C213.986 116.232 213.645 115.209 212.962 114.475C212.28 113.735 211.343 113.365 210.153 113.365C209.332 113.365 208.599 113.543 207.953 113.898C207.314 114.254 206.81 114.773 206.439 115.455C206.069 116.138 205.884 116.965 205.884 117.938ZM242.42 111.274C242.29 110.171 241.76 109.314 240.831 108.704C239.901 108.094 238.762 107.789 237.411 107.789C236.424 107.789 235.56 107.949 234.82 108.269C234.087 108.588 233.513 109.027 233.099 109.586C232.693 110.145 232.489 110.78 232.489 111.492C232.489 112.087 232.631 112.599 232.914 113.027C233.204 113.448 233.575 113.8 234.025 114.083C234.475 114.359 234.947 114.588 235.44 114.769C235.934 114.944 236.388 115.085 236.802 115.194L239.067 115.804C239.647 115.956 240.293 116.167 241.005 116.436C241.724 116.704 242.41 117.071 243.063 117.535C243.724 117.993 244.268 118.581 244.696 119.299C245.125 120.018 245.339 120.9 245.339 121.946C245.339 123.151 245.023 124.24 244.391 125.212C243.767 126.185 242.852 126.958 241.647 127.532C240.45 128.105 238.994 128.392 237.281 128.392C235.684 128.392 234.301 128.134 233.132 127.619C231.97 127.103 231.056 126.385 230.388 125.463C229.727 124.541 229.353 123.47 229.266 122.25H232.054C232.126 123.093 232.41 123.789 232.903 124.341C233.404 124.886 234.036 125.292 234.798 125.561C235.567 125.822 236.395 125.953 237.281 125.953C238.312 125.953 239.237 125.786 240.058 125.452C240.878 125.111 241.528 124.639 242.007 124.036C242.486 123.426 242.725 122.715 242.725 121.902C242.725 121.161 242.518 120.559 242.105 120.094C241.691 119.63 241.146 119.252 240.471 118.962C239.796 118.671 239.067 118.417 238.283 118.2L235.538 117.416C233.796 116.915 232.417 116.2 231.4 115.27C230.384 114.341 229.876 113.125 229.876 111.622C229.876 110.374 230.214 109.285 230.889 108.356C231.571 107.419 232.486 106.693 233.633 106.178C234.787 105.655 236.076 105.394 237.499 105.394C238.936 105.394 240.214 105.651 241.332 106.167C242.45 106.675 243.335 107.372 243.989 108.258C244.649 109.143 244.998 110.149 245.034 111.274H242.42ZM249.431 128V111.274H251.913V113.887H252.131C252.48 112.994 253.042 112.301 253.819 111.808C254.596 111.307 255.529 111.056 256.617 111.056C257.721 111.056 258.639 111.307 259.372 111.808C260.113 112.301 260.69 112.994 261.104 113.887H261.278C261.706 113.024 262.349 112.338 263.206 111.829C264.062 111.314 265.089 111.056 266.287 111.056C267.783 111.056 269.006 111.524 269.957 112.461C270.908 113.39 271.383 114.838 271.383 116.806V128H268.814V116.806C268.814 115.572 268.476 114.69 267.801 114.16C267.126 113.63 266.331 113.365 265.416 113.365C264.24 113.365 263.329 113.72 262.683 114.432C262.037 115.136 261.714 116.029 261.714 117.111V128H259.1V116.544C259.1 115.593 258.792 114.828 258.175 114.247C257.558 113.659 256.763 113.365 255.79 113.365C255.122 113.365 254.498 113.543 253.917 113.898C253.343 114.254 252.879 114.748 252.523 115.379C252.175 116.004 252 116.726 252 117.546V128H249.431ZM281.004 128.392C279.944 128.392 278.982 128.192 278.118 127.793C277.255 127.387 276.569 126.802 276.06 126.04C275.552 125.27 275.298 124.341 275.298 123.252C275.298 122.294 275.487 121.517 275.864 120.922C276.242 120.319 276.746 119.848 277.378 119.506C278.01 119.165 278.706 118.911 279.469 118.744C280.238 118.57 281.011 118.432 281.788 118.33C282.804 118.2 283.628 118.102 284.26 118.036C284.899 117.964 285.363 117.844 285.654 117.677C285.952 117.51 286.1 117.22 286.1 116.806V116.719C286.1 115.644 285.806 114.809 285.218 114.214C284.638 113.619 283.755 113.321 282.572 113.321C281.345 113.321 280.383 113.59 279.687 114.127C278.99 114.664 278.5 115.238 278.216 115.848L275.777 114.976C276.213 113.96 276.794 113.169 277.52 112.602C278.253 112.029 279.051 111.63 279.915 111.405C280.786 111.172 281.643 111.056 282.485 111.056C283.022 111.056 283.639 111.122 284.336 111.252C285.04 111.376 285.719 111.633 286.373 112.025C287.033 112.417 287.581 113.009 288.017 113.8C288.452 114.592 288.67 115.651 288.67 116.98V128H286.1V125.735H285.97C285.795 126.098 285.505 126.486 285.099 126.9C284.692 127.314 284.151 127.666 283.476 127.956C282.801 128.247 281.977 128.392 281.004 128.392ZM281.396 126.083C282.412 126.083 283.269 125.884 283.966 125.485C284.67 125.085 285.2 124.57 285.556 123.938C285.919 123.307 286.1 122.642 286.1 121.946V119.593C285.991 119.724 285.752 119.844 285.382 119.953C285.019 120.054 284.598 120.145 284.118 120.225C283.647 120.298 283.186 120.363 282.736 120.421C282.293 120.472 281.933 120.515 281.657 120.552C280.99 120.639 280.365 120.78 279.785 120.976C279.211 121.165 278.746 121.452 278.391 121.837C278.042 122.214 277.868 122.73 277.868 123.383C277.868 124.276 278.198 124.951 278.859 125.408C279.527 125.858 280.373 126.083 281.396 126.083ZM293.361 128V111.274H295.844V113.8H296.018C296.323 112.973 296.874 112.301 297.673 111.786C298.472 111.27 299.372 111.013 300.374 111.013C300.562 111.013 300.798 111.016 301.081 111.024C301.364 111.031 301.579 111.042 301.724 111.056V113.67C301.637 113.648 301.437 113.615 301.125 113.572C300.82 113.521 300.497 113.495 300.156 113.495C299.343 113.495 298.617 113.666 297.978 114.007C297.346 114.341 296.845 114.806 296.475 115.401C296.112 115.989 295.931 116.661 295.931 117.416V128H293.361ZM313.092 111.274V113.452H304.424V111.274H313.092ZM306.951 107.267H309.521V123.209C309.521 123.935 309.626 124.479 309.836 124.842C310.054 125.198 310.33 125.437 310.664 125.561C311.005 125.677 311.364 125.735 311.742 125.735C312.025 125.735 312.257 125.72 312.439 125.691C312.62 125.655 312.766 125.626 312.874 125.604L313.397 127.913C313.223 127.978 312.98 128.044 312.668 128.109C312.355 128.181 311.96 128.218 311.481 128.218C310.755 128.218 310.043 128.062 309.346 127.75C308.657 127.437 308.083 126.962 307.626 126.323C307.176 125.684 306.951 124.878 306.951 123.906V107.267ZM323.791 128.348C322.179 128.348 320.789 127.993 319.62 127.281C318.459 126.563 317.562 125.561 316.931 124.276C316.306 122.984 315.994 121.481 315.994 119.768C315.994 118.054 316.306 116.544 316.931 115.238C317.562 113.924 318.441 112.9 319.566 112.167C320.698 111.426 322.02 111.056 323.53 111.056C324.401 111.056 325.261 111.201 326.11 111.492C326.96 111.782 327.733 112.254 328.43 112.907C329.127 113.553 329.682 114.41 330.096 115.477C330.51 116.544 330.717 117.858 330.717 119.419V120.508H317.824V118.287H328.103C328.103 117.343 327.914 116.501 327.537 115.76C327.167 115.02 326.637 114.436 325.947 114.007C325.265 113.579 324.459 113.365 323.53 113.365C322.506 113.365 321.62 113.619 320.873 114.127C320.132 114.628 319.562 115.281 319.163 116.087C318.764 116.893 318.564 117.757 318.564 118.679V120.16C318.564 121.423 318.782 122.494 319.218 123.372C319.66 124.243 320.274 124.907 321.058 125.365C321.842 125.815 322.753 126.04 323.791 126.04C324.466 126.04 325.076 125.946 325.62 125.757C326.172 125.561 326.648 125.27 327.047 124.886C327.446 124.494 327.755 124.007 327.973 123.426L330.455 124.123C330.194 124.966 329.755 125.706 329.138 126.345C328.521 126.976 327.758 127.47 326.851 127.826C325.943 128.174 324.924 128.348 323.791 128.348ZM334.626 128V111.274H337.109V113.8H337.283C337.588 112.973 338.14 112.301 338.938 111.786C339.737 111.27 340.637 111.013 341.639 111.013C341.827 111.013 342.063 111.016 342.346 111.024C342.63 111.031 342.844 111.042 342.989 111.056V113.67C342.902 113.648 342.702 113.615 342.39 113.572C342.085 113.521 341.762 113.495 341.421 113.495C340.608 113.495 339.882 113.666 339.243 114.007C338.611 114.341 338.111 114.806 337.74 115.401C337.377 115.989 337.196 116.661 337.196 117.416V128H334.626ZM345.992 128.174C345.454 128.174 344.993 127.982 344.609 127.597C344.224 127.212 344.032 126.751 344.032 126.214C344.032 125.677 344.224 125.216 344.609 124.831C344.993 124.446 345.454 124.254 345.992 124.254C346.529 124.254 346.99 124.446 347.375 124.831C347.759 125.216 347.952 125.677 347.952 126.214C347.952 126.57 347.861 126.897 347.68 127.194C347.505 127.492 347.269 127.731 346.972 127.913C346.681 128.087 346.355 128.174 345.992 128.174ZM373.732 111.274C373.602 110.171 373.072 109.314 372.142 108.704C371.213 108.094 370.073 107.789 368.723 107.789C367.736 107.789 366.872 107.949 366.131 108.269C365.398 108.588 364.825 109.027 364.411 109.586C364.004 110.145 363.801 110.78 363.801 111.492C363.801 112.087 363.943 112.599 364.226 113.027C364.516 113.448 364.886 113.8 365.337 114.083C365.787 114.359 366.259 114.588 366.752 114.769C367.246 114.944 367.7 115.085 368.113 115.194L370.378 115.804C370.959 115.956 371.605 116.167 372.317 116.436C373.035 116.704 373.721 117.071 374.375 117.535C375.035 117.993 375.58 118.581 376.008 119.299C376.436 120.018 376.651 120.9 376.651 121.946C376.651 123.151 376.335 124.24 375.703 125.212C375.079 126.185 374.164 126.958 372.959 127.532C371.761 128.105 370.306 128.392 368.592 128.392C366.995 128.392 365.612 128.134 364.444 127.619C363.282 127.103 362.367 126.385 361.7 125.463C361.039 124.541 360.665 123.47 360.578 122.25H363.366C363.438 123.093 363.721 123.789 364.215 124.341C364.716 124.886 365.347 125.292 366.11 125.561C366.879 125.822 367.707 125.953 368.592 125.953C369.623 125.953 370.549 125.786 371.369 125.452C372.19 125.111 372.839 124.639 373.318 124.036C373.798 123.426 374.037 122.715 374.037 121.902C374.037 121.161 373.83 120.559 373.416 120.094C373.003 119.63 372.458 119.252 371.783 118.962C371.108 118.671 370.378 118.417 369.594 118.2L366.85 117.416C365.108 116.915 363.729 116.2 362.712 115.27C361.696 114.341 361.188 113.125 361.188 111.622C361.188 110.374 361.525 109.285 362.2 108.356C362.883 107.419 363.798 106.693 364.945 106.178C366.099 105.655 367.387 105.394 368.81 105.394C370.248 105.394 371.525 105.651 372.643 106.167C373.761 106.675 374.647 107.372 375.3 108.258C375.961 109.143 376.309 110.149 376.346 111.274H373.732ZM383.312 117.938V128H380.742V105.699H383.312V113.887H383.53C383.922 113.024 384.51 112.338 385.294 111.829C386.085 111.314 387.138 111.056 388.452 111.056C389.592 111.056 390.59 111.285 391.446 111.742C392.303 112.192 392.967 112.886 393.439 113.822C393.918 114.751 394.158 115.935 394.158 117.372V128H391.588V117.546C391.588 116.218 391.243 115.191 390.554 114.465C389.871 113.731 388.924 113.365 387.711 113.365C386.869 113.365 386.114 113.543 385.446 113.898C384.786 114.254 384.263 114.773 383.878 115.455C383.501 116.138 383.312 116.965 383.312 117.938ZM403.781 128.392C402.721 128.392 401.76 128.192 400.896 127.793C400.032 127.387 399.346 126.802 398.838 126.04C398.329 125.27 398.075 124.341 398.075 123.252C398.075 122.294 398.264 121.517 398.642 120.922C399.019 120.319 399.524 119.848 400.155 119.506C400.787 119.165 401.484 118.911 402.246 118.744C403.015 118.57 403.789 118.432 404.565 118.33C405.582 118.2 406.406 118.102 407.037 118.036C407.676 117.964 408.141 117.844 408.431 117.677C408.729 117.51 408.878 117.22 408.878 116.806V116.719C408.878 115.644 408.584 114.809 407.996 114.214C407.415 113.619 406.533 113.321 405.349 113.321C404.123 113.321 403.161 113.59 402.464 114.127C401.767 114.664 401.277 115.238 400.994 115.848L398.554 114.976C398.99 113.96 399.571 113.169 400.297 112.602C401.03 112.029 401.829 111.63 402.692 111.405C403.564 111.172 404.42 111.056 405.262 111.056C405.8 111.056 406.417 111.122 407.113 111.252C407.818 111.376 408.496 111.633 409.15 112.025C409.81 112.417 410.359 113.009 410.794 113.8C411.23 114.592 411.447 115.651 411.447 116.98V128H408.878V125.735H408.747C408.573 126.098 408.282 126.486 407.876 126.9C407.469 127.314 406.928 127.666 406.253 127.956C405.578 128.247 404.754 128.392 403.781 128.392ZM404.173 126.083C405.19 126.083 406.046 125.884 406.743 125.485C407.447 125.085 407.977 124.57 408.333 123.938C408.696 123.307 408.878 122.642 408.878 121.946V119.593C408.769 119.724 408.529 119.844 408.159 119.953C407.796 120.054 407.375 120.145 406.896 120.225C406.424 120.298 405.963 120.363 405.513 120.421C405.07 120.472 404.711 120.515 404.435 120.552C403.767 120.639 403.143 120.78 402.562 120.976C401.988 121.165 401.524 121.452 401.168 121.837C400.819 122.214 400.645 122.73 400.645 123.383C400.645 124.276 400.976 124.951 401.636 125.408C402.304 125.858 403.15 126.083 404.173 126.083ZM416.138 128V111.274H418.621V113.8H418.795C419.1 112.973 419.652 112.301 420.45 111.786C421.249 111.27 422.149 111.013 423.151 111.013C423.339 111.013 423.575 111.016 423.859 111.024C424.142 111.031 424.356 111.042 424.501 111.056V113.67C424.414 113.648 424.214 113.615 423.902 113.572C423.597 113.521 423.274 113.495 422.933 113.495C422.12 113.495 421.394 113.666 420.755 114.007C420.124 114.341 419.623 114.806 419.252 115.401C418.889 115.989 418.708 116.661 418.708 117.416V128H416.138ZM434.051 128.348C432.439 128.348 431.049 127.993 429.88 127.281C428.719 126.563 427.822 125.561 427.191 124.276C426.566 122.984 426.254 121.481 426.254 119.768C426.254 118.054 426.566 116.544 427.191 115.238C427.822 113.924 428.701 112.9 429.826 112.167C430.958 111.426 432.28 111.056 433.79 111.056C434.661 111.056 435.521 111.201 436.37 111.492C437.22 111.782 437.993 112.254 438.69 112.907C439.387 113.553 439.942 114.41 440.356 115.477C440.77 116.544 440.977 117.858 440.977 119.419V120.508H428.084V118.287H438.363C438.363 117.343 438.174 116.501 437.797 115.76C437.427 115.02 436.897 114.436 436.207 114.007C435.525 113.579 434.719 113.365 433.79 113.365C432.766 113.365 431.88 113.619 431.133 114.127C430.392 114.628 429.822 115.281 429.423 116.087C429.024 116.893 428.824 117.757 428.824 118.679V120.16C428.824 121.423 429.042 122.494 429.477 123.372C429.92 124.243 430.534 124.907 431.318 125.365C432.102 125.815 433.013 126.04 434.051 126.04C434.726 126.04 435.336 125.946 435.88 125.757C436.432 125.561 436.908 125.27 437.307 124.886C437.706 124.494 438.015 124.007 438.232 123.426L440.715 124.123C440.454 124.966 440.015 125.706 439.398 126.345C438.781 126.976 438.018 127.47 437.111 127.826C436.203 128.174 435.183 128.348 434.051 128.348ZM469.104 112.668C468.864 111.935 468.548 111.278 468.156 110.697C467.772 110.109 467.311 109.608 466.773 109.194C466.243 108.78 465.641 108.465 464.966 108.247C464.291 108.029 463.55 107.92 462.744 107.92C461.423 107.92 460.222 108.261 459.14 108.944C458.058 109.626 457.198 110.632 456.559 111.96C455.92 113.289 455.601 114.918 455.601 116.849C455.601 118.78 455.924 120.41 456.57 121.739C457.216 123.067 458.091 124.073 459.194 124.755C460.298 125.437 461.539 125.779 462.919 125.779C464.196 125.779 465.322 125.506 466.294 124.962C467.274 124.41 468.037 123.633 468.581 122.632C469.133 121.622 469.409 120.436 469.409 119.071L470.236 119.245H463.528V116.849H472.022V119.245C472.022 121.082 471.63 122.679 470.846 124.036C470.069 125.394 468.995 126.446 467.623 127.194C466.258 127.935 464.69 128.305 462.919 128.305C460.944 128.305 459.209 127.84 457.713 126.911C456.225 125.982 455.064 124.661 454.229 122.947C453.401 121.234 452.988 119.201 452.988 116.849C452.988 115.085 453.223 113.499 453.695 112.091C454.174 110.675 454.85 109.47 455.721 108.475C456.592 107.481 457.623 106.719 458.813 106.189C460.004 105.659 461.314 105.394 462.744 105.394C463.92 105.394 465.017 105.572 466.033 105.927C467.057 106.276 467.968 106.773 468.766 107.419C469.572 108.058 470.243 108.824 470.781 109.717C471.318 110.602 471.688 111.586 471.891 112.668H469.104ZM476.299 128V111.274H478.782V113.8H478.956C479.261 112.973 479.812 112.301 480.611 111.786C481.41 111.27 482.31 111.013 483.312 111.013C483.5 111.013 483.736 111.016 484.019 111.024C484.303 111.031 484.517 111.042 484.662 111.056V113.67C484.575 113.648 484.375 113.615 484.063 113.572C483.758 113.521 483.435 113.495 483.094 113.495C482.281 113.495 481.555 113.666 480.916 114.007C480.284 114.341 479.783 114.806 479.413 115.401C479.05 115.989 478.869 116.661 478.869 117.416V128H476.299ZM494.212 128.348C492.6 128.348 491.21 127.993 490.041 127.281C488.88 126.563 487.983 125.561 487.352 124.276C486.727 122.984 486.415 121.481 486.415 119.768C486.415 118.054 486.727 116.544 487.352 115.238C487.983 113.924 488.862 112.9 489.987 112.167C491.119 111.426 492.44 111.056 493.95 111.056C494.822 111.056 495.682 111.201 496.531 111.492C497.381 111.782 498.154 112.254 498.851 112.907C499.548 113.553 500.103 114.41 500.517 115.477C500.931 116.544 501.137 117.858 501.137 119.419V120.508H488.244V118.287H498.524C498.524 117.343 498.335 116.501 497.958 115.76C497.588 115.02 497.058 114.436 496.368 114.007C495.686 113.579 494.88 113.365 493.95 113.365C492.927 113.365 492.041 113.619 491.293 114.127C490.553 114.628 489.983 115.281 489.584 116.087C489.185 116.893 488.985 117.757 488.985 118.679V120.16C488.985 121.423 489.203 122.494 489.638 123.372C490.081 124.243 490.695 124.907 491.479 125.365C492.263 125.815 493.174 126.04 494.212 126.04C494.887 126.04 495.497 125.946 496.041 125.757C496.593 125.561 497.068 125.27 497.468 124.886C497.867 124.494 498.176 124.007 498.393 123.426L500.876 124.123C500.615 124.966 500.176 125.706 499.558 126.345C498.941 126.976 498.179 127.47 497.272 127.826C496.364 128.174 495.344 128.348 494.212 128.348ZM512.059 128.348C510.448 128.348 509.058 127.993 507.889 127.281C506.727 126.563 505.831 125.561 505.199 124.276C504.575 122.984 504.263 121.481 504.263 119.768C504.263 118.054 504.575 116.544 505.199 115.238C505.831 113.924 506.709 112.9 507.834 112.167C508.967 111.426 510.288 111.056 511.798 111.056C512.669 111.056 513.529 111.201 514.379 111.492C515.228 111.782 516.001 112.254 516.698 112.907C517.395 113.553 517.951 114.41 518.364 115.477C518.778 116.544 518.985 117.858 518.985 119.419V120.508H506.092V118.287H516.372C516.372 117.343 516.183 116.501 515.805 115.76C515.435 115.02 514.905 114.436 514.216 114.007C513.533 113.579 512.727 113.365 511.798 113.365C510.774 113.365 509.889 113.619 509.141 114.127C508.401 114.628 507.831 115.281 507.431 116.087C507.032 116.893 506.833 117.757 506.833 118.679V120.16C506.833 121.423 507.05 122.494 507.486 123.372C507.929 124.243 508.542 124.907 509.326 125.365C510.11 125.815 511.021 126.04 512.059 126.04C512.735 126.04 513.344 125.946 513.889 125.757C514.441 125.561 514.916 125.27 515.315 124.886C515.715 124.494 516.023 124.007 516.241 123.426L518.724 124.123C518.462 124.966 518.023 125.706 517.406 126.345C516.789 126.976 516.027 127.47 515.119 127.826C514.212 128.174 513.192 128.348 512.059 128.348ZM525.464 117.938V128H522.894V111.274H525.377V113.887H525.595C525.987 113.038 526.582 112.356 527.381 111.84C528.179 111.318 529.21 111.056 530.473 111.056C531.606 111.056 532.597 111.289 533.446 111.753C534.295 112.21 534.956 112.907 535.428 113.844C535.9 114.773 536.136 115.949 536.136 117.372V128H533.566V117.546C533.566 116.232 533.225 115.209 532.542 114.475C531.86 113.735 530.923 113.365 529.733 113.365C528.912 113.365 528.179 113.543 527.533 113.898C526.894 114.254 526.39 114.773 526.02 115.455C525.649 116.138 525.464 116.965 525.464 117.938ZM547.845 128.348C546.233 128.348 544.843 127.993 543.674 127.281C542.512 126.563 541.616 125.561 540.984 124.276C540.36 122.984 540.048 121.481 540.048 119.768C540.048 118.054 540.36 116.544 540.984 115.238C541.616 113.924 542.494 112.9 543.619 112.167C544.752 111.426 546.073 111.056 547.583 111.056C548.454 111.056 549.315 111.201 550.164 111.492C551.013 111.782 551.786 112.254 552.483 112.907C553.18 113.553 553.736 114.41 554.149 115.477C554.563 116.544 554.77 117.858 554.77 119.419V120.508H541.877V118.287H552.157C552.157 117.343 551.968 116.501 551.59 115.76C551.22 115.02 550.69 114.436 550.001 114.007C549.318 113.579 548.512 113.365 547.583 113.365C546.56 113.365 545.674 113.619 544.926 114.127C544.186 114.628 543.616 115.281 543.217 116.087C542.817 116.893 542.618 117.757 542.618 118.679V120.16C542.618 121.423 542.835 122.494 543.271 123.372C543.714 124.243 544.327 124.907 545.111 125.365C545.895 125.815 546.806 126.04 547.845 126.04C548.52 126.04 549.129 125.946 549.674 125.757C550.226 125.561 550.701 125.27 551.1 124.886C551.5 124.494 551.808 124.007 552.026 123.426L554.509 124.123C554.247 124.966 553.808 125.706 553.191 126.345C552.574 126.976 551.812 127.47 550.904 127.826C549.997 128.174 548.977 128.348 547.845 128.348ZM558.679 128V111.274H561.162V113.8H561.336C561.641 112.973 562.193 112.301 562.992 111.786C563.79 111.27 564.69 111.013 565.692 111.013C565.881 111.013 566.117 111.016 566.4 111.024C566.683 111.031 566.897 111.042 567.042 111.056V113.67C566.955 113.648 566.756 113.615 566.443 113.572C566.139 113.521 565.816 113.495 565.474 113.495C564.661 113.495 563.935 113.666 563.296 114.007C562.665 114.341 562.164 114.806 561.794 115.401C561.431 115.989 561.249 116.661 561.249 117.416V128H558.679Z" fill="#282A29"/>
</svg>
